<?xml version="1.0" encoding="utf-8"?>
<!-- Generator: Adobe Illustrator 16.0.0, SVG Export Plug-In . SVG Version: 6.00 Build 0)  -->
<!DOCTYPE svg PUBLIC "-//W3C//DTD SVG 1.1//EN" "http://www.w3.org/Graphics/SVG/1.1/DTD/svg11.dtd">
<svg version="1.1" id="Layer_2" xmlns="http://www.w3.org/2000/svg" xmlns:xlink="http://www.w3.org/1999/xlink" x="0px" y="0px"
	 width="612px" height="792px" viewBox="0 0 612 792" enable-background="new 0 0 612 792" xml:space="preserve">
<path fill="#A4DE02" d="M489.605,153.524c0-26.523-21.49-48.024-48-48.024H170.394c-26.51,0-48,21.501-48,48.024v158.938h367.212
	L489.605,153.524z"/>
<line fill="none" x1="489.605" y1="312.462" x2="122.394" y2="312.462"/>
<line fill="none" x1="122.392" y1="356.462" x2="489.605" y2="356.462"/>
<path fill="#A4DE02" d="M122.392,356.462V596.47c0,27.079,21.491,49.03,48,49.03h271.212c26.511,0,48.001-21.951,48.001-49.03
	V356.462H122.392L122.392,356.462z"/>
<path fill="#FFFFFF" d="M445.668,273.585c0,8.119-6.716,14.701-15,14.701l0,0c-8.284,0-15-6.582-15-14.701v-25.84
	c0-8.12,6.716-14.701,15-14.701l0,0c8.284,0,15,6.582,15,14.701V273.585z"/>
<path fill="#FFFFFF" d="M445.672,443.967c0,8.463-6.716,15.322-15,15.322l0,0c-8.284,0-15-6.859-15-15.322v-40.857
	c0-8.462,6.716-15.322,15-15.322l0,0c8.284,0,15,6.86,15,15.322V443.967z"/>
<path fill="#A4DE02" d="M430.667,647.5c0,8.837-7.164,16-16,16h-15.334c-8.836,0-16-7.163-16-16v-4c0-8.837,7.164-16,16-16h15.334
	c8.836,0,16,7.163,16,16V647.5L430.667,647.5z"/>
<path fill="#A4DE02" d="M230.827,647.5c0,8.837-7.164,16-16,16h-15.333c-8.836,0-16-7.163-16-16v-4c0-8.837,7.164-16,16-16h15.334
	c8.836,0,16,7.163,16,16L230.827,647.5L230.827,647.5z"/>
</svg>
