<?xml version="1.0" encoding="utf-8"?>
<!-- Generator: Adobe Illustrator 16.0.0, SVG Export Plug-In . SVG Version: 6.00 Build 0)  -->
<!DOCTYPE svg PUBLIC "-//W3C//DTD SVG 1.1//EN" "http://www.w3.org/Graphics/SVG/1.1/DTD/svg11.dtd">
<svg version="1.1" id="Layer_1" focusable="false" xmlns="http://www.w3.org/2000/svg" xmlns:xlink="http://www.w3.org/1999/xlink"
	 x="0px" y="0px" width="612px" height="792px" viewBox="0 0 612 792" enable-background="new 0 0 612 792" xml:space="preserve">
<path d="M489.604,325.167l-0.005-125.39c0-26.794-20.588-48.577-45.899-48.577h-275.41c-25.312,0-45.9,21.783-45.9,48.577
	l0.005,125.39"/>
<rect x="122.395" y="328.501" width="367.208" height="309.633"/>
<path fill="#FFFFFF" stroke="#FFFFFF" stroke-miterlimit="10" d="M467.869,404.658c0,3.934-3.629,7.127-8.105,7.127l0,0
	c-4.477,0-8.105-3.193-8.105-7.127v-49.646c0-3.937,3.629-7.127,8.105-7.127l0,0c4.477,0,8.105,3.19,8.105,7.127V404.658z"/>
<path fill="#FFFFFF" stroke="#FFFFFF" stroke-miterlimit="10" d="M467.869,300.991c0,3.935-3.629,7.127-8.105,7.127l0,0
	c-4.477,0-8.105-3.192-8.105-7.127v-49.646c0-3.937,3.629-7.127,8.105-7.127l0,0c4.477,0,8.105,3.19,8.105,7.127V300.991z"/>
</svg>
